<?xml version="1.0" encoding="utf-8"?>
<!-- Generator: Adobe Illustrator 26.0.2, SVG Export Plug-In . SVG Version: 6.00 Build 0)  -->
<svg version="1.1" id="Warstwa_1" xmlns="http://www.w3.org/2000/svg" xmlns:xlink="http://www.w3.org/1999/xlink" x="0px" y="0px"
	 viewBox="0 0 175 117" style="enable-background:new 0 0 175 117;" xml:space="preserve">
<style type="text/css">
	.st0{fill:#F2F2F2;}
	.st1{fill:none;stroke:#F2F2F2;stroke-width:2;stroke-miterlimit:10;}
</style>
<path class="st0" d="M70.9,36.6c-4.2,0-7.7,3.5-7.7,7.7s3.4,7.7,7.7,7.7s7.7-3.5,7.7-7.7S75.2,36.6,70.9,36.6z M118.1,22.5H56.7
	c-5.5,0-10.1,4.6-10.1,10.3v51.5c0,5.7,4.6,10.3,10.1,10.3h61.4c5.7,0,10.2-4.6,10.2-10.3V32.8C128.4,27.1,123.9,22.5,118.1,22.5z
	 M120.7,83.2L98.8,53.3c-0.4-0.7-1.3-1.2-2.3-1.2c-1,0-1.9,0.4-2.4,1.2L77,76.4L71.1,69c-0.6-0.7-1.4-1.1-2.4-1.1
	c-0.9,0-1.8,0.4-2.4,1.1L54.3,84.1c0,0,0,0,0,0l0-51.3c0-1.4,1.1-2.6,2.6-2.6h61.4c1.4,0,2.6,1.2,2.6,2.6v50.4H120.7z"/>
<rect class="st1" width="175" height="117"/>
</svg>
