<?xml version="1.0" standalone="no"?>
<!DOCTYPE svg PUBLIC "-//W3C//DTD SVG 1.1//EN" "http://www.w3.org/Graphics/SVG/1.1/DTD/svg11.dtd" >
<svg xmlns="http://www.w3.org/2000/svg">
<metadata>Generated by IcoMoon</metadata>
<defs>
<font id="nuevo" horiz-adv-x="1024">
<font-face units-per-em="1024" ascent="819" descent="-205" />
<missing-glyph horiz-adv-x="1024" />
<glyph unicode="&#x20;" horiz-adv-x="0" d="" />
<glyph unicode="&#xe900;" glyph-name="pip-full" d="M814 644.167h-598q-41 0-70.5-25t-29.5-61v-518q0-36 29.5-61.5t70.5-25.5h598q41 0 67.5 25.5t26.5 61.5v518q0 36-26.5 61t-67.5 25zM843 29.167h-650l-2 540h652v-540zM234 531.167h558v-460h-558v460z" />
<glyph unicode="&#xe901;" glyph-name="rewind" d="M483 199.441q-12 20-32 32.5t-44 13.5v0q-24-1-44-13.5t-32-31.5v-1q-13-21-20-46t-7-53q0-27 7-52.5t21-47.5l-1 1q12-20 32-32t44-13v0q24 1 44 13t32 32v0q13 21 20.5 46.5t7.5 52.5q0 28-7.5 53t-21.5 47l1-1zM407-2.559q-25 0-43.5 30.5t-18.5 72.5q0 43 18.5 73.5t43.5 30.5 43.5-30.5 18.5-73.5q0-42-18.5-72.5t-43.5-30.5zM221-43.559v218l-20-20-30 29 56 55q3 3 6.5 4.5t8.5 1.5q8 0 14-6t6-14v0 0 0-269l-41 1zM915 513.441v-536q0-9-6-15t-14-6h-269v83h206v413h-495v-83q0-17-10-22.5t-24 4.5l-179 119q-7 3-11 9.5t-4 13.5q0 3 1 6l2 6v-1q2 4 5 7t6 5h1l179 119q14 10 24 4.5t10-22.5v-83h557q9 0 15-6t6-15v0 0z" />
<glyph unicode="&#xe902;" glyph-name="forward" d="M109.029 512.941v-536q0-9 6-15t15-6h268v83h-206v413h496v-83q0-17 10-22.5t24 4.5l179 119q9 5 12.5 15t-1.5 19q-1 4-4 7t-7 5l-179 119q-14 10-24 4.5t-10-22.5v-83h-558q-8 0-14.5-6t-6.5-15v0zM801.029 199.941q-11 20-31.5 32t-43.5 13q-24-1-44-13t-32-32q-28-46-28-99t28-99q12-20 32-32.5t44-13.5q23 1 43.5 13.5t31.5 32.5q28 46 28 99t-28 99zM726.029-2.059q-25 0-43.5 30.5t-18.5 72.5 18.5 72.5 43.5 30.5 43-30.5 18-72.5-18-72.5-43-30.5zM540.029-44.059v219l-21-21-29 29 56 56q10 10 22.5 4.5t12.5-18.5v-269h-41z" />
<glyph unicode="&#xe903;" glyph-name="skip" d="M161.5-51.833l497 350-497 351v-701zM745.5 649.167v-701h117v701h-117z" />
<glyph unicode="&#xe904;" glyph-name="cast" d="M857.336 644.002h-690.669q-31.244 0-53.854-22.61t-22.61-54.676v-114.289h76.468v114.289h690.669v-536.091h-268.868v-77.29h268.868q31.244 0 53.854 22.61t22.61 54.676v536.091q0 32.066-22.61 54.676t-53.854 22.61v0zM90.2 68.443v-115.111h115.111q0 49.332-33.302 82.222t-81.812 32.888zM90.2 222.202v-77.29q40.29 0 75.646-14.8 34.534-14.8 60.434-40.7t40.7-60.434q14.8-35.356 14.8-75.646h76.468q0 55.912-20.556 105.244t-57.144 85.511-85.102 56.734q-49.332 21.378-105.244 21.378v0zM90.2 375.135v-76.468q71.534 0 134.844-27.132 62.488-27.132 109.356-73.588t74.001-109.766q27.132-62.488 27.132-134.844h76.468q0 87.978-32.888 164.446-32.888 77.29-90.032 134.434t-134.434 90.032q-76.468 32.888-164.446 32.888v0z" />
<glyph unicode="&#xe905;" glyph-name="cast-off" d="M90.716 68.915v-115.082h115.082q0 47.677-33.702 81.379t-81.379 33.702v0zM90.716 221.811v-76.449q39.458 0 74.804-14.798 34.524-14.798 60.416-41.102t41.512-60.83q14.798-35.346 14.798-74.804h76.449q0 55.896-20.55 104.396-21.372 49.322-57.954 85.49t-85.078 57.54q-48.5 20.55-104.396 20.55v0zM780.386 489.789h-536.777v-62.474q57.54-18.083 107.684-49.322t91.242-72.338 72.338-91.242 49.322-106.862h216.19v382.238zM90.716 375.527v-77.269q71.516 0 133.99-26.306 63.296-27.128 109.738-73.982t73.57-110.152q27.128-62.474 27.128-133.99h76.449q0 87.134-32.88 164.402-32.88 76.449-90.011 133.576t-134.399 90.011q-76.449 33.702-163.58 33.702v0zM856.835 643.507h-689.671q-31.236 0-53.842-22.606t-22.606-53.842v-115.082h76.449v115.082h689.671v-536.777h-267.977v-76.449h267.977q31.236 0 53.842 22.606t22.606 53.842v536.777q0 31.236-22.606 53.842t-53.842 22.606v0z" />
<glyph unicode="&#xe906;" glyph-name="theater" d="M795.38 623.334h-561.129c-26.274 0-48.637-7.819-67.092-23.459s-27.681-34.719-27.681-57.239v-487c0-22.52 9.227-41.756 27.681-57.708s40.818-23.928 67.092-23.928h561.129c25.648 0 46.917 7.976 63.807 23.928s25.335 35.188 25.335 57.708v487c0 22.52-8.445 41.6-25.335 57.239s-38.16 23.459-63.807 23.459zM822.592 45.314h-609.923l-1.877 506.705h611.8z" />
<glyph unicode="&#xe907;" glyph-name="theater-min" d="M813.46 437.006h-598c-28 0-51.833-8.333-71.5-25s-29.582-37-29.5-61l1.080-317.008c0.082-24 9.833-44.5 29.5-61.5s43.5-25.5 71.5-25.5h598c27.333 0 50 8.5 68 25.5s27.082 37.5 27 61.5l-1.080 317.008c-0.082 24-9 44.333-27 61s-40.667 25-68 25zM843.54 22.998h-650l-3.080 338.008h652z" />
<glyph unicode="&#xe908;" glyph-name="download" d="M796.653 241.159v-186.118h-569.302v186.118h-109.421v-240.828c0-30.196 24.463-54.683 54.789-54.683h678.561c30.303 0 54.789 24.463 54.789 54.683v240.828zM501.984 150.899l-156.655 189.296c0 0-19.998 8.95 2.010 22.503h88.276v275.562c0 0-3.508 13.428 16.713 13.428h124.258c14.569 0 14.239-11.308 14.239-11.308v-271.999h81.483c31.363 0 7.745-23.563 7.745-23.563s-133.284-176.933-151.872-195.493c-13.372-13.452-26.199 1.575-26.199 1.575z" />
<glyph unicode="&#xe909;" glyph-name="forward2" d="M109.030 513.374v-537c0-5.333 2-10 6-14s9-6 15-6h517.816l-3.71 82h-452.106v413h495v-83c0-11.333 3.5-18.667 10.5-22s15.167-2 24.5 4l179 120c6 2.667 10.167 7.333 12.5 14s1.833 13.333-1.5 20c-1.333 2.667-3 5-5 7s-4 3.333-6 4l-179 120c-9.333 6-17.5 7.167-24.5 3.5s-10.5-11.167-10.5-22.5v-82h-557c-6 0-11-2.167-15-6.5s-6-9.167-6-14.5z" />
<glyph unicode="&#xe90a;" glyph-name="rewind2" d="M915 512.941v-537c0-5.333-2-10-6-14s-9-6-15-6h-495.041v79.932l433.041 3.068v412h-495v-82c0-11.333-3.5-18.833-10.5-22.5s-15.167-2.5-24.5 3.5l-179 120c-4 2-7.333 5-10 9s-4 8.667-4 14c0 2 0.333 4 1 6s1.333 3.667 2 5v0c1.333 2.667 2.833 5 4.5 7s3.833 3.667 6.5 5v0l179 119c9.333 6.667 17.5 8.167 24.5 4.5s10.5-11.167 10.5-22.5v-83h557c6 0 11-2 15-6s6-9 6-15z" />
<glyph unicode="&#xe90c;" glyph-name="airplay" d="M842.905 647.667q29.296 0 51.705-22.402t22.402-51.705v-441.202q0-29.296-22.402-50.845t-51.705-21.542h-146.494v72.387h146.494v441.202h-661.81v-441.202h146.494v-72.387h-146.494q-29.296 0-51.705 21.542t-22.402 50.845v441.202q0 29.296 22.402 51.705t51.705 22.402h661.81zM291.399-50.333l220.601 220.601 220.601-220.601h-441.202z" />
<glyph unicode="&#xe960;" glyph-name="snapshot" d="M529.743 405.334c-88.357 0-159.965-71.645-159.965-159.999s71.609-159.999 159.965-159.999c88.32 0 159.965 71.645 159.965 159.999s-71.645 159.999-159.965 159.999zM467.804 352.604c18.277 10.63 39.29 17.173 61.972 17.173 63.681 0 115.769-48.284 122.987-110.116-61.51 47.361-134.223 76.586-184.959 92.943zM885.334 547.555h-171.877l-23.679 71.11h-355.555l-23.679-71.11h-136.32c-39.253 0-88.889-31.857-88.889-71.11v-426.666c0-39.253 49.636-71.11 88.889-71.11h711.111c39.253 0 53.332 31.857 53.332 71.11v426.666c0 39.253-14.079 71.11-53.332 71.11zM529.779 14.223c-127.643 0-231.112 103.466-231.112 231.112s103.466 231.112 231.112 231.112 231.112-103.466 231.112-231.112-103.466-231.112-231.112-231.112zM867.556 405.334h-71.11v71.11h71.11v-71.11z" />
<glyph unicode="&#xe9b3;" glyph-name="center" d="M896.5 347.167h-76q-8 50-31 94-22 44-56.5 78.5t-78.5 56.5q-44 23-94 31v76h-97v-76q-50-8-94-31-44-22-78.5-56.5t-56.5-78.5q-23-44-31-94h-76v-97h76q8-50 31-94 22-44 56.5-78.5t78.5-56.5q44-23 94-31v-76h97v76q50 8 94 31 44 22 78.5 56.5t56.5 78.5q23 44 31 94h76v97zM722.5 347.167h-75q-10 30-33.5 53.5t-53.5 33.5v75q60-13 104.5-57.5t57.5-104.5v0zM512.5 250.167q-20 0-34.5 14.5t-14.5 34.5q0 19 14.5 33.5t33.5 14.5q20 0 34.5-14.5t14.5-33.5q0-20-14.5-34.5t-33.5-14.5zM463.5 509.167v-75q-30-10-53.5-33.5t-33.5-53.5h-75q13 60 57.5 104.5t104.5 57.5zM301.5 250.167h75q10-30 33.5-53.5t53.5-33.5v-75q-60 13-104.5 57.5t-57.5 104.5zM560.5 88.167v75q30 10 53.5 33.5t33.5 53.5h75q-13-60-57.5-104.5t-104.5-57.5z" />
<glyph unicode="&#xea45;" glyph-name="mirror1" d="M823.634 655.17h44.862v-356.847h-44.862v356.847zM155.498 298.323h44.862v-356.154h-44.862v356.154zM378.44 164.419h490.057v-89.040h-490.057v-111.124l-155.99 155.99 155.99 155.99v-111.818zM645.56 432.225h-490.057v89.040h490.057v111.124l155.99-155.99-155.99-155.99v111.818z" />
<glyph unicode="&#xea46;" glyph-name="mirror2" d="M200.363 655.169h-44.862v-356.847h44.862v356.847zM868.502 298.322h-44.862v-356.154h44.862v356.154zM645.557 164.419h-490.058v-89.040h490.058v-111.124l155.99 155.99-155.99 155.99v-111.818zM378.439 432.226h490.058v89.040h-490.058v111.124l-155.99-155.99 155.99-155.99v111.818z" />
<glyph unicode="&#xea47;" glyph-name="replay-big" d="M653.551 527.258l65.237 142.826 96.495-260.602-238.389-44.099 58.557 128.202c-29.72 13.575-63.917 21.183-94.814 21.991-31.148 0.258-78.598-4.852-106.935-15.19s-77.693-42.26-100.518-63.101c-23.625-21.139-47.363-57.818-60.938-87.538-13.324-29.171-22.518-73.521-23.026-105.218-0.809-30.897 4.672-59.314 15.414-87.502s33.129-71.994 53.717-95.367c20.841-22.823 54.9-54.549 84.62-68.124s86.124-23.168 117.020-23.977c31.148-0.258 80.556 12.116 108.893 22.454s59.25 31.649 82.076 52.49c23.625 21.139 46.821 53.654 60.145 82.825l37.252-17.015c-17.849-39.077-42.122-72.558-72.819-100.445s-64.889-48.857-102.574-62.91c-37.685-14.053-77.259-20.591-118.72-19.613-41.714 0.426-82.385 9.689-122.013 27.79s-73.26 42.776-100.895 74.025c-27.887 30.698-48.857 64.889-62.91 102.574s-20.591 77.259-19.613 118.72c0.978 41.462 10.391 81.731 28.24 120.807 18.101 39.629 42.5 73.386 73.197 101.273s64.889 48.857 102.574 62.91c37.685 14.053 77.259 20.591 118.72 19.613 41.714-0.426 82.385-9.689 122.013-27.79v0z" />
<glyph unicode="&#xf00a;" glyph-name="playlist" d="M291.5 58.667v-110q0-23-16.5-39t-39.5-16h-184q-23 0-39 16t-16 39v110q0 23 16 39.5t39 16.5h184q23 0 39.5-16.5t16.5-39.5zM291.5 353.667v-110q0-23-16.5-39.5t-39.5-16.5h-184q-23 0-39 16.5t-16 39.5v110q0 23 16 39t39 16h184q23 0 39.5-16t16.5-39zM659.5 58.667v-110q0-23-16.5-39t-38.5-16h-185q-22 0-38.5 16t-16.5 39v110q0 23 16.5 39.5t38.5 16.5h185q22 0 38.5-16.5t16.5-39.5zM291.5 648.667v-111q0-23-16.5-39t-39.5-16h-184q-23 0-39 16t-16 39v111q0 22 16 38.5t39 16.5h184q23 0 39.5-16.5t16.5-38.5v0zM659.5 353.667v-110q0-23-16.5-39.5t-38.5-16.5h-185q-22 0-38.5 16.5t-16.5 39.5v110q0 23 16.5 39t38.5 16h185q22 0 38.5-16t16.5-39zM1027.5 58.667v-110q0-23-16-39t-39-16h-184q-23 0-39.5 16t-16.5 39v110q0 23 16.5 39.5t39.5 16.5h184q23 0 39-16.5t16-39.5zM659.5 648.667v-111q0-23-16.5-39t-38.5-16h-185q-22 0-38.5 16t-16.5 39v111q0 22 16.5 38.5t38.5 16.5h185q22 0 38.5-16.5t16.5-38.5v0zM1027.5 353.667v-110q0-23-16-39.5t-39-16.5h-184q-23 0-39.5 16.5t-16.5 39.5v110q0 23 16.5 39t39.5 16h184q23 0 39-16t16-39zM1027.5 648.667v-111q0-23-16-39t-39-16h-184q-23 0-39.5 16t-16.5 39v111q0 22 16.5 38.5t39.5 16.5h184q23 0 39-16.5t16-38.5v0z" />
<glyph unicode="&#xf00c;" glyph-name="checked" d="M957.5 507.167q0-11-4-21.5t-12-17.5l-495-495q-7-8-17.5-12t-21.5-4q-10 0-20.5 4t-18.5 12l-286 286q-8 8-12 18.5t-4 21.5q0 10 4 20.5t12 18.5l78 78q8 8 18 12t21 4 21-4 18-12l169-170 378 378q8 8 18 12t21 4 21-4 18-12l78-78q8-8 12-18t4-21v0z" />
<glyph unicode="&#xf00d;" glyph-name="cancel" horiz-adv-x="818" d="M753 89.667q0-24-16-40l-79-79q-16-16-40-16-23 0-39 16l-170 171-170-171q-16-16-39-16-24 0-40 16l-79 79q-16 16-16 40 0 23 16 39l171 170-171 170q-16 16-16 39 0 24 16 40l79 79q16 16 40 16 23 0 39-16l170-171 170 171q16 16 39 16 24 0 40-16l79-79q16-16 16-40 0-23-16-39l-171-170 171-170q16-16 16-39z" />
<glyph unicode="&#xf012;" glyph-name="volume-bar" d="M52.5 184.167q-23 0-40-17t-17-40v-115q0-24 17-41t40-17q24 0 41 17t17 41v115q0 23-17 40t-41 17zM282.5 299.167q-24 0-40.5-17t-16.5-41v-229q0-24 16.5-41t40.5-17 40.5 17 16.5 41v229q0 24-16.5 41t-40.5 17zM512.5 414.167q-24 0-41-17t-17-41v-344q0-24 17-41t41-17q23 0 40 17t17 41v344q0 24-17 41t-40 17v0zM741.5 528.167q-24 0-40.5-16.5t-16.5-40.5v-459q0-24 16.5-41t40.5-17 40.5 17 16.5 41v459q0 24-16.5 40.5t-40.5 16.5zM971.5 643.167q-24 0-41-17t-17-40v-574q0-24 17-41t41-17q23 0 40 17t17 41v574q0 23-17 40t-40 17z" />
<glyph unicode="&#xf053;" glyph-name="previous" horiz-adv-x="781" d="M679.5 606.167l-308-308 308-307q11-11 11-26t-11-26l-96-96q-11-11-26-11t-26 11l-430 429q-11 11-11 26t11 26l430 430q11 11 26 11t26-11l96-96q11-11 11-26t-11-26v0z" />
<glyph unicode="&#xf054;" glyph-name="next" horiz-adv-x="708" d="M643 272.167l-430-429q-11-11-26-11t-26 11l-96 96q-11 11-11 26t11 26l307 307-307 308q-11 11-11 26t11 26l96 96q11 11 26 11t26-11l430-430q11-11 11-26t-11-26v0z" />
<glyph unicode="&#xf059;" glyph-name="help" horiz-adv-x="889" d="M519 21.167v111q0 8-6 13-5 6-13 6h-111q-8 0-13-6-5-5-5-13v-111q0-8 5-13t13-5h111q8 0 13 5 6 5 6 13zM666 409.167q0 51-32 95-32 43-80 67-48 23-98 23-140 0-214-123-9-14 4-24l77-58q4-3 11-3 9 0 14 7 31 39 50 53t49 14q28 0 50-15t22-34q0-22-12-36-12-13-39-26-37-16-67-50-30-33-30-72v-21q0-8 5-13t13-5h111q8 0 13 5 6 5 6 13 0 11 12 29 12 17 31 28t29 17 26 20q17 14 26 28 9 13 16 35 7 21 7 46v0zM888 298.167q0-120-59-222-60-102-162-162-102-59-222-59-121 0-223 59-102 60-162 162-59 102-59 222 0 121 59 223 60 102 162 162 102 59 223 59 120 0 222-59 102-60 162-162 59-102 59-223z" />
<glyph unicode="&#xf05a;" glyph-name="info" horiz-adv-x="889" d="M592 21.167v93q0 8-5 13t-13 5h-55v296q0 8-6 13-5 5-13 5h-185q-8 0-13-5t-5-13v-93q0-8 5-13t13-5h56v-185h-56q-8 0-13-5t-5-13v-93q0-8 5-13t13-5h259q8 0 13 5t5 13v0zM519 539.167v92q0 8-6 13-5 6-13 6h-111q-8 0-13-6-5-5-5-13v-92q0-8 5-14 5-5 13-5h111q8 0 13 5 6 6 6 14zM888 298.167q0-120-59-222-60-102-162-162-102-59-222-59-121 0-223 59-102 60-162 162-59 102-59 222 0 121 59 223 60 102 162 162 102 59 223 59 120 0 222-59 102-60 162-162 59-102 59-223z" />
<glyph unicode="&#xf065;" glyph-name="fullscreen" horiz-adv-x="889" d="M437.722 215.065q0-6.326-5.422-11.75l-172.624-173.528 75.015-75.015q9.942-9.942 9.942-23.498t-9.942-23.498-23.498-9.942h-234.083q-13.556 0-23.498 9.942t-9.942 23.498v234.083q0 13.556 9.942 23.498t23.498 9.942 23.498-9.942l75.015-75.918 173.528 173.528q5.422 5.422 11.75 5.422 7.23 0 11.75-5.422l59.65-59.65q5.422-4.519 5.422-11.75v0zM845.334 666.059v-234.083q0-13.556-9.942-23.498t-23.498-9.942-23.498 9.942l-75.015 75.918-173.528-173.528q-4.519-5.422-11.75-5.422-6.326 0-11.75 5.422l-59.65 59.65q-5.422 4.519-5.422 11.75 0 6.326 5.422 11.75l173.528 173.528-75.918 75.015q-9.942 9.942-9.942 23.498t9.942 23.498 23.498 9.942h234.083q13.556 0 23.498-9.942t9.942-23.498v0z" />
<glyph unicode="&#xf066;" glyph-name="fullscreen-off" horiz-adv-x="889" d="M444.5 265.735v-233.684q0-13.534-9.924-23.458t-23.458-9.924-23.458 9.924l-75.79 74.887-172.33-173.232q-5.414-5.414-12.632-5.414-6.316 0-11.73 5.414l-59.548 59.548q-4.512 5.414-4.512 11.73 0 7.218 4.512 12.632l173.232 172.33-74.887 75.79q-9.924 9.924-9.924 23.458t9.924 23.458q9.924 9.022 23.458 9.022h233.684q13.534 0 23.458-9.022 9.924-9.924 9.924-23.458v0zM837.882 615.809q0-7.218-5.414-12.632l-173.232-172.33 74.887-75.79q9.924-9.924 9.924-23.458t-9.924-23.458-23.458-9.924h-232.782q-13.534 0-23.458 9.924t-9.924 23.458v233.684q0 13.534 9.924 23.458t23.458 9.924 23.458-9.924l74.887-74.887 172.33 173.232q5.414 5.414 12.632 5.414 6.316 0 11.73-5.414l59.548-59.548q5.414-5.414 5.414-11.73v0z" />
<glyph unicode="&#xf081;" glyph-name="twitter" horiz-adv-x="891" d="M742 464.167q-33-15-70-20 39 23 54 68-38-22-78-30-35 38-89 38-50 0-85-35-36-36-36-86 0-17 3-28-75 4-140 38-66 33-111 89-17-29-17-61 0-66 53-101-28 0-58 15v-1q0-44 29-78 29-33 71-42-17-4-30-4-7 0-22 2 12-36 43-60t70-24q-67-52-151-52-15 0-29 1 86-54 187-54 64 0 121 20 57 21 97 55 41 35 70 80t43 93q15 49 15 98 0 10-1 16 36 26 61 63v0zM890 576.167v-556q0-68-49-117t-118-49h-555q-69 0-118 49t-49 117v556q0 69 49 118t118 49h555q69 0 118-49t49-118v0z" />
<glyph unicode="&#xf082;" glyph-name="facebook" horiz-adv-x="891" d="M723 743.167q69 0 118-49t49-118v-556q0-68-49-117t-118-49h-109v344h116l17 134h-133v86q0 32 14 49 14 16 53 16h71v120q-37 5-103 5-79 0-126-46t-47-131v-99h-116v-134h116v-344h-308q-69 0-118 49t-49 117v556q0 69 49 118t118 49h555z" />
<glyph unicode="&#xf08c;" glyph-name="linked-in" horiz-adv-x="891" d="M138-1.833h134v402h-134v-402zM281 524.167q-1 30-21 50-21 19-54 19-34 0-55-19-21-20-21-50t21-50q20-20 53-20h1q34 0 55 20t21 50v0zM619-1.833h134v231q0 89-42 135-43 45-112 45-79 0-121-67h1v58h-134q2-38 0-402h134v225q0 22 4 32 9 21 26 35t43 14q67 0 67-91v-215zM890 576.167v-556q0-68-49-117t-118-49h-555q-69 0-118 49t-49 117v556q0 69 49 118t118 49h555q69 0 118-49t49-118v0z" />
<glyph unicode="&#xf0d3;" glyph-name="pinterest" horiz-adv-x="891" d="M723 743.167q69 0 118-49t49-118v-556q0-68-49-117t-118-49h-419q49 70 62 121 5 20 31 121 12-22 42-39 31-16 65-16 105 0 172 86 66 85 66 216 0 48-20 94-21 45-56 80-36 35-89 56-52 21-114 21-60 0-112-16-53-16-89-44t-62-64q-26-35-38-74-13-38-13-76 0-59 23-105 23-45 67-63 8-3 14 0t8 11q6 25 9 35 4 13-6 24-29 36-29 87 0 87 60 149 60 61 156 61 86 0 135-47 48-47 48-121 0-97-39-166-39-68-100-68-35 0-56 25-22 25-14 60 5 20 16 54 10 33 17 59 6 25 6 43 0 28-15 47-16 19-44 19-35 0-60-33t-25-81q0-41 14-70l-56-239q-14-58-4-147h-106q-69 0-118 49t-49 117v556q0 69 49 118t118 49h555z" />
<glyph unicode="&#xf101;" glyph-name="play" d="M274.5 601.167v-605l475 302z" />
<glyph unicode="&#xf103;" glyph-name="pause" d="M253-3.833h173v605h-173v-605zM598 601.167v-605h173v605h-173z" />
<glyph unicode="&#xf104;" glyph-name="mute" d="M706 298.667q0 57-30 103.5t-78 70.5v-95l107-106q1 6 1 13v14zM815 298.667q0-30-6.5-58.5t-17.5-55.5l66-65q21 40 32.5 85.5t11.5 93.5q0 70-23 132t-63.5 112-95.5 85q-56 35-121 50v-89q47-14 87-42 40-27 68.5-65t44.5-85q17-46 17-98v0zM178 687.667l-55-55 204-204h-204v-259h173l216-216v290l184-184q-22-16-46.5-29.5t-51.5-21.5v-89q45 10 85.5 30t74.5 48l88-88 55 55-723 723zM512 644.667l-90-90 90-91v181z" />
<glyph unicode="&#xf107;" glyph-name="volume" d="M123 428.667v-259h173l216-216v691l-216-216h-173zM706 298.667q0 57-30 103.5t-78 70.5v-348q48 24 78 70.5t30 103.5zM598 677.667v-89q47-14 87-42 40-27 68.5-65t44.5-85q17-46 17-98 0-51-17-98-16-46-44.5-84t-68.5-66-87-41v-90q65 15 121 50 55 35 95.5 85t63.5 112q23 63 23 132 0 70-23 132t-63.5 112-95.5 85q-56 36-121 50z" />
<glyph unicode="&#xf10a;" glyph-name="pip" d="M814 644.167h-598q-41 0-70.5-25t-29.5-61v-518q0-36 29.5-61.5t70.5-25.5h598q41 0 67.5 25.5t26.5 61.5v518q0 36-26.5 61t-67.5 25zM843 29.167h-650l-2 540h652v-540zM528 290.167h265v-219h-265v219z" />
<glyph unicode="&#xf10c;" glyph-name="descriptions" d="M857.5 644.167h-691q-36 0-61.5-25.5t-25.5-60.5v-519q0-36 25.5-61t61.5-25h691q36 0 61.5 25t25.5 61v519q0 35-25.5 60.5t-61.5 25.5v0zM166.5 298.167h173v-86h-173v86zM598.5 39.167h-432v86h432v-86zM857.5 39.167h-173v86h173v-86zM857.5 212.167h-432v86h432v-86z" />
<glyph unicode="&#xf10d;" glyph-name="captions" d="M814.5 644.167h-605q-36 0-61-25.5t-25-60.5v-519q0-36 25-61t61-25h605q36 0 61 25t25 61v519q0 35-25 60.5t-61 25.5v0zM468.5 342.167h-64v21h-87v-130h87v22h64v-43q0-18-12.5-30.5t-30.5-12.5h-130q-18 0-30.5 12.5t-12.5 30.5v173q0 18 12.5 30.5t30.5 12.5h130q18 0 30.5-12.5t12.5-30.5v-43zM771.5 342.167h-65v21h-86v-130h86v22h65v-43q0-18-12.5-30.5t-30.5-12.5h-130q-18 0-30.5 12.5t-12.5 30.5v173q0 18 12.5 30.5t30.5 12.5h130q18 0 30.5-12.5t12.5-30.5v-43z" />
<glyph unicode="&#xf10e;" glyph-name="chapters" d="M85.13 251.421h94.494v95.593h-94.494v-95.593zM85.13 61.333h94.494v95.593h-94.494v-95.593zM85.13 441.507h94.494v94.494h-94.494v-94.494zM274.117 251.421h664.753v95.593h-664.753v-95.593zM274.117 61.333h664.753v95.593h-664.753v-95.593zM274.117 536.001v-94.494h664.753v94.494h-664.753z" />
<glyph unicode="&#xf10f;" glyph-name="share" d="M771.5 120.167q-25 0-46.5-9t-38.5-24l-308 179q2 7 3 15t1 15q0 8-1 15.5t-3 15.5l305 177q17-16 39.5-25.5t48.5-9.5q53 0 91 38t38 92-38 92-91 38q-54 0-92-38t-38-92q0-8 1-15.5t3-14.5l-305-178q-17 16-39.5 25.5t-48.5 9.5q-53 0-91-38t-38-92q0-53 38-91t91-38q26 0 48.5 9t39.5 26l308-180-2-14t-1-14q0-52 37-89t89-37 89 37 37 89-37 89-89 37v0z" />
<glyph unicode="&#xf110;" glyph-name="settings" d="M805.154 260.718l1.897 18.974t0.949 18.974q0 10.436-0.949 19.923l-1.897 18.974 83.487 65.462q5.692 3.795 7.115 10.91t-2.372 13.756l-78.744 136.615q-3.795 6.641-10.91 9.013t-13.756-0.474l-97.718-38.897q-15.179 11.385-31.782 21.346t-34.628 17.551l-15.179 104.359q-0.949 6.641-6.641 11.385t-13.282 4.744h-157.487q-7.59 0-13.282-4.744t-6.641-11.385l-14.231-104.359q-18.026-7.59-35.103-17.551t-32.256-21.346l-97.718 38.897q-6.641 2.846-13.756 0.474t-10.91-9.013l-78.744-136.615q-3.795-5.692-2.372-12.808t7.115-11.859l83.487-65.462-1.897-18.974t-0.949-19.923q0-9.487 0.949-18.974l1.897-18.974-83.487-65.462q-5.692-4.744-7.115-11.859t2.372-13.756l78.744-136.615q3.795-6.641 10.91-9.013t13.756 0.474l97.718 39.846q15.179-11.385 32.256-21.346t35.103-17.551l14.231-104.359q0.949-7.59 6.641-12.333t13.282-4.744h157.487q7.59 0 12.808 4.744t7.115 12.333l14.231 104.359q18.026 7.59 35.103 17.551t32.256 21.346l97.718-39.846q6.641-1.897 13.756 0t10.91 8.538l78.744 136.615q3.795 6.641 2.372 13.756t-7.115 11.859l-83.487 65.462zM512 161.103q-56.923 0-97.718 40.321t-40.795 97.244q0 57.872 40.795 98.192t97.718 40.321 97.718-40.321 40.795-98.192q0-56.923-40.795-97.244t-97.718-40.321z" />
<glyph unicode="&#xf115;" glyph-name="close" d="M512.5 730.667q-90 0-169-34-78-33-137-92t-93-137q-34-79-34-169 0-89 34-168t93-137.5 137-92.5q79-34 169-34 89 0 168 34 78 34 137 92.5t93 137.5 34 168q0 90-34 169-34 78-93 137t-137 92q-79 34-168 34zM728.5 143.667l-62-61-154 155-155-155-62 61 155 155-155 155 62 61 155-155 154 155 62-61-155-155 155-155z" />
<glyph unicode="&#xf116;" glyph-name="replay" d="M512.5 558.167v173l-217-216 217-216v172q53 0 100-20 48-20 83-55.5t55-82.5q21-47 21-101t-21-101q-20-47-55-82t-83-56q-47-20-100-20-54 0-101 20-48 21-83 56t-55 82q-21 47-21 101h-86q0-72 27-135 27-62 74-109t110-74q63-28 135-28 71 0 134 28 63 27 110 74t74 109q27 63 27 135t-27 135-74 109.5-110 74.5q-63 27-134 27v0z" />
<glyph unicode="&#xf11d;" glyph-name="uniF11D" d="M437.184 36.813v526.082q91.442 1.188 161.506-1.782t122.318-39.782q48.69-34.438 81.346-100.348t26.72-152.6q-8.312-92.628-68.878-160.912t-147.256-76.596q-43.94-3.562-108.66-1.782l-64.722 1.782-1.188 2.376t-1.188 3.562v0zM554.752 168.631q57.002-2.376 93.816 27.908t42.752 81.346q7.126 70.066-33.252 111.036t-106.88 35.032v-248.198q0-3.562 1.188-4.75l2.376-2.376zM813.636 36.813q24.938-5.938 35.626 13.656t20.188 38.596q23.75 40.376 39.19 92.034t15.438 112.224q0 85.504-27.314 149.036t-58.19 106.286h-20.188q-1.188-7.126 2.376-13.656t5.938-11.282q23.75-42.752 42.752-100.942t19-125.88q0-78.378-21.97-143.1t-52.846-116.974v0zM913.39 36.813q23.75-5.938 34.438 13.656t21.376 38.596q23.75 40.376 38.596 92.034t16.032 112.224q0 85.504-27.314 149.036t-58.19 106.286h-21.376q-1.188-7.126 2.968-13.656t6.532-11.282q23.75-42.752 42.752-100.942t19-125.88q0-78.378-21.97-143.1t-52.846-116.974v0zM1011.956 36.813q24.938-5.938 35.626 13.656t20.188 38.596q23.75 40.376 39.19 92.034t15.438 112.224q0 85.504-27.314 149.036t-58.19 106.286h-20.188q-1.188-7.126 2.376-13.656t5.938-11.282q23.75-42.752 42.752-100.942t19-125.88q0-78.378-21.97-143.1t-52.846-116.974v0zM-98.398 33.251h163.882l45.126 68.878h154.38v-68.878h117.568v535.584h-142.506q-4.75-8.312-58.19-93.816-53.44-84.316-115.786-182.288t-113.41-178.726l-51.064-80.754zM268.554 382.389v-171.006l-97.378 1.188 97.378 169.82z" />
<glyph unicode="&#xf11e;" glyph-name="audio" d="M511.527 671.834q-72.836 0-137.159-28.378-64.323-27.432-112.092-75.674t-76.147-112.565q-27.432-64.323-27.432-137.159v-275.264q0-48.242 34.526-82.768t82.768-34.526h118.24v314.046h-157.023v78.512q0 56.755 21.756 106.889t58.647 87.498 87.025 59.12 106.889 21.756q57.701 0 107.835-21.756 49.188-21.756 86.552-59.12t59.12-87.498 21.756-106.889v-78.512h-157.023v-314.046h118.24q48.242 0 82.768 34.526t34.526 82.768v275.264q0 72.836-27.432 137.159-28.378 64.323-76.147 112.565t-112.092 75.674q-64.323 28.378-138.105 28.378v0z" />
<glyph unicode="&#xf128;" glyph-name="uniF128" horiz-adv-x="636" d="M408.596 74.942v-148.789q0-9.773-7.059-17.375t-17.918-7.602h-148.789q-9.773 0-17.375 7.602t-7.602 17.375v148.789q0 10.86 7.602 17.918t17.375 7.059h148.789q10.86 0 17.918-7.059t7.059-17.918zM605.174 447.457q0-87.973-47.242-129.784t-91.774-65.707q-27.153-16.292-43.441-42.357t-16.292-40.182v0q0-9.773-7.059-19.55t-17.918-9.773h-148.789q-10.86 0-16.834 11.948t-5.972 22.807v28.237q0 55.387 43.983 100.458t85.253 63.534q35.839 16.292 52.13 34.211t16.292 48.329q0 26.065-29.322 45.614t-66.247 19.55q-21.72 0-39.64-5.431t-27.696-11.948q-11.948-8.69-25.521-22.807t-40.725-48.872q-4.346-4.346-9.232-7.059t-10.316-2.714q-4.346 0-8.147 1.088t-8.147 3.258l-101.002 78.194q-8.69 5.431-10.316 14.661t3.801 17.918q49.96 83.627 121.639 124.353t166.167 40.725q49.96 0 101.002-18.463 49.96-18.463 90.142-52.13t66.247-79.282q24.977-44.528 24.977-98.832v0z" />
</font>
</defs>
</svg>
